HIERARCHY
ROOT Hips
{
  OFFSET -14.888 -13.576 -297.973
  CHANNELS 6 Xposition Yposition Zposition Zrotation Xrotation Yrotation
  JOINT LeftUpLeg
  {
    OFFSET 7.183 -7.181 3.308
    CHANNELS 6 Xposition Yposition Zposition Zrotation Xrotation Yrotation
    JOINT LeftLeg
    {
      OFFSET 0.000 -49.125 0.000
      CHANNELS 6 Xposition Yposition Zposition Zrotation Xrotation Yrotation
      JOINT LeftFoot
      {
        OFFSET 0.000 -40.776 -0.000
        CHANNELS 6 Xposition Yposition Zposition Zrotation Xrotation Yrotation
        End Site
        {
          OFFSET -0.000 -7.150 4.128
        }
      }
    }
  }
  JOINT RightUpLeg
  {
    OFFSET -7.592 -6.322 2.008
    CHANNELS 6 Xposition Yposition Zposition Zrotation Xrotation Yrotation
    JOINT RightLeg
    {
      OFFSET -0.000 -48.240 0.000
      CHANNELS 6 Xposition Yposition Zposition Zrotation Xrotation Yrotation
      JOINT RightFoot
      {
        OFFSET 0.000 -39.623 -0.000
        CHANNELS 6 Xposition Yposition Zposition Zrotation Xrotation Yrotation
        End Site
        {
          OFFSET -0.000 -7.574 4.373
        }
      }
    }
  }
  JOINT Spine
  {
    OFFSET 0.000 5.298 -5.298
    CHANNELS 6 Xposition Yposition Zposition Zrotation Xrotation Yrotation
    JOINT LeftShoulder
    {
      OFFSET -0.000 35.645 0.000
      CHANNELS 6 Xposition Yposition Zposition Zrotation Xrotation Yrotation
      JOINT LeftArm
      {
        OFFSET 20.465 0.000 -0.000
        CHANNELS 6 Xposition Yposition Zposition Zrotation Xrotation Yrotation
        JOINT LeftForeArm
        {
          OFFSET 25.494 -0.000 0.000
          CHANNELS 6 Xposition Yposition Zposition Zrotation Xrotation Yrotation
          JOINT LeftHand
          {
            OFFSET 24.503 0.000 -0.000
            CHANNELS 6 Xposition Yposition Zposition Zrotation Xrotation Yrotation
            JOINT LeftHandThumb1
            {
            OFFSET 4.970 -0.620 3.390
            CHANNELS 6 Xposition Yposition Zposition Zrotation Xrotation Yrotation
              JOINT LeftHandThumb2
              {
              OFFSET 2.150 -0.000 0.000
              CHANNELS 6 Xposition Yposition Zposition Zrotation Xrotation Yrotation
                JOINT LeftHandThumb3
                {
                OFFSET 2.200 -0.000 0.000
                CHANNELS 6 Xposition Yposition Zposition Zrotation Xrotation Yrotation
                  JOINT LeftHandThumb4
                  {
                  OFFSET 1.700 -0.000 0.000
                  CHANNELS 6 Xposition Yposition Zposition Zrotation Xrotation Yrotation
                  }
                }
              }
            }
            JOINT LeftHandIndex1
            {
            OFFSET 8.730 0.680 2.070
            CHANNELS 6 Xposition Yposition Zposition Zrotation Xrotation Yrotation
              JOINT LeftHandIndex2
              {
              OFFSET 2.670 -0.000 0.000
              CHANNELS 6 Xposition Yposition Zposition Zrotation Xrotation Yrotation
                JOINT LeftHandIndex3
                {
                OFFSET 2.130 -0.000 0.000
                CHANNELS 6 Xposition Yposition Zposition Zrotation Xrotation Yrotation
                  JOINT LeftHandIndex4
                  {
                  OFFSET 1.800 -0.000 0.000
                  CHANNELS 6 Xposition Yposition Zposition Zrotation Xrotation Yrotation
                  }
                }
              }
            }
            JOINT LeftHandMiddle1
            {
            OFFSET 9.220 0.670 0.550
            CHANNELS 6 Xposition Yposition Zposition Zrotation Xrotation Yrotation
              JOINT LeftHandMiddle2
              {
              OFFSET 2.660 -0.000 0.000
              CHANNELS 6 Xposition Yposition Zposition Zrotation Xrotation Yrotation
                JOINT LeftHandMiddle3
                {
                OFFSET 2.280 -0.000 0.000
                CHANNELS 6 Xposition Yposition Zposition Zrotation Xrotation Yrotation
                  JOINT LeftHandMiddle4
                  {
                  OFFSET 1.500 -0.000 0.000
                  CHANNELS 6 Xposition Yposition Zposition Zrotation Xrotation Yrotation
                  }
                }
              }
            }
            JOINT LeftHandRing1
            {
            OFFSET 9.250 0.670 -1.130
            CHANNELS 6 Xposition Yposition Zposition Zrotation Xrotation Yrotation
              JOINT LeftHandRing2
              {
              OFFSET 2.470 -0.000 0.000
              CHANNELS 6 Xposition Yposition Zposition Zrotation Xrotation Yrotation
                JOINT LeftHandRing3
                {
                OFFSET 2.210 -0.000 0.000
                CHANNELS 6 Xposition Yposition Zposition Zrotation Xrotation Yrotation
                  JOINT LeftHandRing4
                  {
                  OFFSET 1.800 -0.000 0.000
                  CHANNELS 6 Xposition Yposition Zposition Zrotation Xrotation Yrotation
                  }
                }
              }
            }
            JOINT LeftHandPinky1
            {
            OFFSET 9.350 0.660 -2.720
            CHANNELS 6 Xposition Yposition Zposition Zrotation Xrotation Yrotation
              JOINT LeftHandPinky2
              {
              OFFSET 1.630 -0.000 0.000
              CHANNELS 6 Xposition Yposition Zposition Zrotation Xrotation Yrotation
                JOINT LeftHandPinky3
                {
                OFFSET 1.710 -0.000 0.000
                CHANNELS 6 Xposition Yposition Zposition Zrotation Xrotation Yrotation
                  JOINT LeftHandPinky4
                  {
                  OFFSET 1.800 -0.000 0.000
                  CHANNELS 6 Xposition Yposition Zposition Zrotation Xrotation Yrotation
                  }
                }
              }
            }
          }
        }
      }
    }
    JOINT RightShoulder
    {
      OFFSET -0.000 35.645 0.000
      CHANNELS 6 Xposition Yposition Zposition Zrotation Xrotation Yrotation
      JOINT RightArm
      {
        OFFSET -18.739 0.000 -0.000
        CHANNELS 6 Xposition Yposition Zposition Zrotation Xrotation Yrotation
        JOINT RightForeArm
        {
          OFFSET -25.959 0.000 0.000
          CHANNELS 6 Xposition Yposition Zposition Zrotation Xrotation Yrotation
          JOINT RightHand
          {
            OFFSET -25.965 0.000 -0.000
            CHANNELS 6 Xposition Yposition Zposition Zrotation Xrotation Yrotation
            JOINT RightHandThumb1
            {
            OFFSET -4.970 -0.620 3.390
            CHANNELS 6 Xposition Yposition Zposition Zrotation Xrotation Yrotation
              JOINT RightHandThumb2
              {
              OFFSET -2.150 0.000 0.000
              CHANNELS 6 Xposition Yposition Zposition Zrotation Xrotation Yrotation
                JOINT RightHandThumb3
                {
                OFFSET -2.200 0.000 0.000
                CHANNELS 6 Xposition Yposition Zposition Zrotation Xrotation Yrotation
                  JOINT RightHandThumb4
                  {
                  OFFSET -1.700 0.000 0.000
                  CHANNELS 6 Xposition Yposition Zposition Zrotation Xrotation Yrotation
                  }
                }
              }
            }
            JOINT RightHandIndex1
            {
            OFFSET -8.730 0.680 2.070
            CHANNELS 6 Xposition Yposition Zposition Zrotation Xrotation Yrotation
              JOINT RightHandIndex2
              {
              OFFSET -2.670 0.000 0.000
              CHANNELS 6 Xposition Yposition Zposition Zrotation Xrotation Yrotation
                JOINT RightHandIndex3
                {
                OFFSET -2.130 0.000 0.000
                CHANNELS 6 Xposition Yposition Zposition Zrotation Xrotation Yrotation
                  JOINT RightHandIndex4
                  {
                  OFFSET -1.800 0.000 0.000
                  CHANNELS 6 Xposition Yposition Zposition Zrotation Xrotation Yrotation
                  }
                }
              }
            }
            JOINT RightHandMiddle1
            {
            OFFSET -9.220 0.670 0.550
            CHANNELS 6 Xposition Yposition Zposition Zrotation Xrotation Yrotation
              JOINT RightHandMiddle2
              {
              OFFSET -2.660 0.000 0.000
              CHANNELS 6 Xposition Yposition Zposition Zrotation Xrotation Yrotation
                JOINT RightHandMiddle3
                {
                OFFSET -2.280 0.000 0.000
                CHANNELS 6 Xposition Yposition Zposition Zrotation Xrotation Yrotation
                  JOINT RightHandMiddle4
                  {
                  OFFSET -1.500 0.000 0.000
                  CHANNELS 6 Xposition Yposition Zposition Zrotation Xrotation Yrotation
                  }
                }
              }
            }
            JOINT RightHandRing1
            {
            OFFSET -9.250 0.670 -1.130
            CHANNELS 6 Xposition Yposition Zposition Zrotation Xrotation Yrotation
              JOINT RightHandRing2
              {
              OFFSET -2.470 0.000 0.000
              CHANNELS 6 Xposition Yposition Zposition Zrotation Xrotation Yrotation
                JOINT RightHandRing3
                {
                OFFSET -2.210 0.000 0.000
                CHANNELS 6 Xposition Yposition Zposition Zrotation Xrotation Yrotation
                  JOINT RightHandRing4
                  {
                  OFFSET -1.800 0.000 0.000
                  CHANNELS 6 Xposition Yposition Zposition Zrotation Xrotation Yrotation
                  }
                }
              }
            }
            JOINT RightHandPinky1
            {
            OFFSET -9.350 0.660 -2.720
            CHANNELS 6 Xposition Yposition Zposition Zrotation Xrotation Yrotation
              JOINT RightHandPinky2
              {
              OFFSET -1.630 0.000 0.000
              CHANNELS 6 Xposition Yposition Zposition Zrotation Xrotation Yrotation
                JOINT RightHandPinky3
                {
                OFFSET -1.710 0.000 0.000
                CHANNELS 6 Xposition Yposition Zposition Zrotation Xrotation Yrotation
                  JOINT RightHandPinky4
                  {
                  OFFSET -1.800 0.000 0.000
                  CHANNELS 6 Xposition Yposition Zposition Zrotation Xrotation Yrotation
                  }
                }
              }
            }
          }
        }
      }
    }
    JOINT Neck
    {
      OFFSET -0.000 35.645 0.000
      CHANNELS 6 Xposition Yposition Zposition Zrotation Xrotation Yrotation
      JOINT Head
      {
        OFFSET -0.000 19.275 -0.000
        CHANNELS 6 Xposition Yposition Zposition Zrotation Xrotation Yrotation
        End Site
        {
          OFFSET -0.000 0.077 -0.000
        }
      }
    }
  }
}
MOTION
Frames:	5
Frame Time:	0.0333333
-9.99388 -11.0303 -304.936 0.128072 -0.863267 12.6969 7.69485 -8.22744 2.06187 2.35063 -1.53358 -2.30952 -5.96046e-06 -51.0368 7.15256e-05 -5.49884 0.696164 0.0670185 -5.96046e-06 -41.8054 4.76837e-05 11.4451 2.16217 6.32777 -7.97054 -7.23198 1.38822 -7.68214 -12.0602 -3.25401 0 -49.8458 2.38419e-05 2.84678 11.5273 -0.569338 0 -40.2701 0 2.49904 -6.1662 1.81461 -1.19209e-05 5.98023 -5.98021 -0.930557 -3.67793 0.252311 1.78814e-05 35.6457 0 -28.004 1.53679e-05 -3.23787 21.5268 -1.78814e-05 2.38419e-05 -39.4249 53.2685 -15.1728 25.5628 -1.19209e-05 -2.38419e-05 -4.29708e-06 -1.70755e-06 -20.7185 24.7881 2.38419e-05 1.19209e-05 -3.58597 0.00464155 -3.13576 0.0062 0.0497 0.0339 0 0 0 0 0.0215 0 0 0 0 0 0.022 0 0 0 0 0 0.017 0 0 0 0 -0.0068 0.0873 0.0207 0 0 0 0 0.0267 0 0 0 0 0 0.0213 0 0 0 0 0 0.018 0 0 0 0 -0.0067 0.0922 0.0055 0 0 0 0 0.0266 0 0 0 0 0 0.0228 0 0 0 0 0 0.015 0 0 0 0 -0.0067 0.0925 -0.0113 0 0 0 0 0.0247 0 0 0 0 0 0.0221 0 0 0 0 0 0.018 0 0 0 0 -0.0066 0.0935 -0.0272 0 0 0 0 0.0163 0 0 0 0 0 0.0171 0 0 0 0 0 0.018 0 0 0 0 1.78814e-05 35.6457 0 33.455 -2.13443e-06 3.52352 -19.7834 5.96046e-06 -4.76837e-05 44.142 32.5755 1.70064 -26.6805 4.76837e-05 -7.15256e-05 4.93113e-06 1.70755e-06 30.0931 -23.0371 3.57628e-05 4.76837e-05 -0.167538 -0.0595219 6.10941 -0.0062 0.0497 0.0339 0 0 0 0 0.0215 0 0 0 0 0 0.022 0 0 0 0 0 0.017 0 0 0 0 0.0068 0.0873 0.0207 0 0 0 0 0.0267 0 0 0 0 0 0.0213 0 0 0 0 0 0.018 0 0 0 0 0.0067 0.0922 0.0055 0 0 0 0 0.0266 0 0 0 0 0 0.0228 0 0 0 0 0 0.015 0 0 0 0 0.0067 0.0925 -0.0113 0 0 0 0 0.0247 0 0 0 0 0 0.0221 0 0 0 0 0 0.018 0 0 0 0 0.0066 0.0935 -0.0272 0 0 0 0 0.0163 0 0 0 0 0 0.0171 0 0 0 0 0 0.018 0 0 0 0 1.78814e-05 35.6457 0 -3.09992 6.98309 0.377238 -1.19209e-05 19.169 2.38419e-05 9.73836e-06 -9.60496e-06 0 
-9.66812 -11.0634 -305.096 0.051693 -1.03136 12.6942 7.70021 -8.26531 2.00808 2.27383 -1.33068 -1.88193 -1.78814e-05 -51.0208 -2.38419e-05 -5.48748 0.479082 0.0460234 -1.19209e-05 -41.7906 2.38419e-05 11.2246 2.67525 6.10094 -7.94895 -7.21105 1.45659 -7.66357 -12.3426 -2.78554 8.9407e-06 -49.8706 0 3.08023 11.5909 -0.619461 -2.98023e-06 -40.142 -7.15256e-05 2.4324 -7.58015 1.79835 0 5.98059 -5.98063 -0.880365 -3.66262 0.154634 5.96046e-06 35.6456 4.76837e-05 -28.1924 1.28066e-05 -3.38256 21.4929 -2.38419e-05 2.38419e-05 -52.3054 -4.53573 -9.02086 25.8063 0 -2.38419e-05 -16.2586 3.03931 -10.3041 24.9677 1.19209e-05 4.76837e-05 -3.85377 -0.0698175 0.503741 0.0062 0.0497 0.0339 0 0 0 0 0.0215 0 0 0 0 0 0.022 0 0 0 0 0 0.017 0 0 0 0 -0.0068 0.0873 0.0207 0 0 0 0 0.0267 0 0 0 0 0 0.0213 0 0 0 0 0 0.018 0 0 0 0 -0.0067 0.0922 0.0055 0 0 0 0 0.0266 0 0 0 0 0 0.0228 0 0 0 0 0 0.015 0 0 0 0 -0.0067 0.0925 -0.0113 0 0 0 0 0.0247 0 0 0 0 0 0.0221 0 0 0 0 0 0.018 0 0 0 0 -0.0066 0.0935 -0.0272 0 0 0 0 0.0163 0 0 0 0 0 0.0171 0 0 0 0 0 0.018 0 0 0 0 5.96046e-06 35.6456 4.76837e-05 33.2444 -5.12264e-06 3.67366 -19.7918 1.78814e-05 -0.000119209 44.6758 31.7902 1.46121 -26.8714 4.76837e-05 9.53674e-05 1.48578e-05 -5.12264e-06 30.292 -22.8158 -2.38419e-05 -2.38419e-05 -0.306069 -0.052028 6.04045 -0.0062 0.0497 0.0339 0 0 0 0 0.0215 0 0 0 0 0 0.022 0 0 0 0 0 0.017 0 0 0 0 0.0068 0.0873 0.0207 0 0 0 0 0.0267 0 0 0 0 0 0.0213 0 0 0 0 0 0.018 0 0 0 0 0.0067 0.0922 0.0055 0 0 0 0 0.0266 0 0 0 0 0 0.0228 0 0 0 0 0 0.015 0 0 0 0 0.0067 0.0925 -0.0113 0 0 0 0 0.0247 0 0 0 0 0 0.0221 0 0 0 0 0 0.018 0 0 0 0 0.0066 0.0935 -0.0272 0 0 0 0 0.0163 0 0 0 0 0 0.0171 0 0 0 0 0 0.018 0 0 0 0 5.96046e-06 35.6456 4.76837e-05 -2.98313 7.39414 0.384255 1.19209e-05 19.2503 4.76837e-05 8.53774e-06 -1.00318e-05 1.70755e-06 
-9.39067 -11.0773 -305.218 0.048811 -1.19335 12.8583 7.69575 -8.3064 1.97575 2.13592 -1.1571 -1.63602 -5.96046e-06 -51.055 2.38419e-05 -5.4368 0.335855 0.0319658 5.96046e-06 -41.7695 -4.76837e-05 11.0126 3.13275 5.89144 -7.93757 -7.19017 1.49634 -7.71147 -12.4559 -2.49658 -8.9407e-06 -49.9424 -2.38419e-05 3.27141 11.5032 -0.653075 -2.98023e-06 -40.0229 0 2.40221 -7.73985 1.76979 -5.96046e-06 5.97976 -5.97975 -0.893427 -3.61038 0.126896 5.96046e-06 35.6457 -2.38419e-05 -28.1057 1.02453e-05 -3.31752 21.4817 0 0 -52.6359 -4.47842 -9.26016 26.1802 0 2.38419e-05 -15.0726 2.62671 -9.65761 25.8341 5.96046e-06 4.76837e-05 -4.31176 -0.0862203 1.91495 0.0062 0.0497 0.0339 0 0 0 0 0.0215 0 0 0 0 0 0.022 0 0 0 0 0 0.017 0 0 0 0 -0.0068 0.0873 0.0207 0 0 0 0 0.0267 0 0 0 0 0 0.0213 0 0 0 0 0 0.018 0 0 0 0 -0.0067 0.0922 0.0055 0 0 0 0 0.0266 0 0 0 0 0 0.0228 0 0 0 0 0 0.015 0 0 0 0 -0.0067 0.0925 -0.0113 0 0 0 0 0.0247 0 0 0 0 0 0.0221 0 0 0 0 0 0.018 0 0 0 0 -0.0066 0.0935 -0.0272 0 0 0 0 0.0163 0 0 0 0 0 0.0171 0 0 0 0 0 0.018 0 0 0 0 5.96046e-06 35.6457 -2.38419e-05 33.095 -1.06722e-06 3.60177 -19.7882 5.96046e-06 0 44.8945 31.1098 1.51579 -27.0087 3.57628e-05 0 1.08745e-05 1.70755e-06 30.3744 -22.6353 -1.19209e-05 -1.19209e-05 0.219024 -0.029513 5.81034 -0.0062 0.0497 0.0339 0 0 0 0 0.0215 0 0 0 0 0 0.022 0 0 0 0 0 0.017 0 0 0 0 0.0068 0.0873 0.0207 0 0 0 0 0.0267 0 0 0 0 0 0.0213 0 0 0 0 0 0.018 0 0 0 0 0.0067 0.0922 0.0055 0 0 0 0 0.0266 0 0 0 0 0 0.0228 0 0 0 0 0 0.015 0 0 0 0 0.0067 0.0925 -0.0113 0 0 0 0 0.0247 0 0 0 0 0 0.0221 0 0 0 0 0 0.018 0 0 0 0 0.0066 0.0935 -0.0272 0 0 0 0 0.0163 0 0 0 0 0 0.0171 0 0 0 0 0 0.018 0 0 0 0 5.96046e-06 35.6457 -2.38419e-05 -2.93507 7.8886 0.403176 0 19.3077 0 1.02986e-05 -9.39151e-06 2.56132e-06 
-9.01005 -11.1095 -305.323 0.0760117 -1.38996 13.3823 7.69115 -8.3566 1.95017 1.89331 -1.08878 -1.43074 -5.96046e-06 -51.1365 2.38419e-05 -5.37272 0.467167 0.0439375 5.96046e-06 -41.7186 -4.76837e-05 10.664 3.87859 5.5504 -7.92306 -7.16214 1.52881 -7.81647 -12.5006 -2.25254 1.78814e-05 -50.0503 0 3.48497 11.1775 -0.67636 -5.96046e-06 -39.7774 2.38419e-05 2.5034 -6.49429 1.76654 1.19209e-05 5.97841 -5.97839 -0.726736 -3.50512 0.000920383 5.96046e-06 35.6457 2.38419e-05 -28.0827 1.10991e-05 -3.00535 21.5973 -1.19209e-05 -2.38419e-05 -53.3397 -4.12611 -9.53862 26.7067 1.78814e-05 4.76837e-05 -13.2822 2.27628 -9.55071 26.9757 0 -7.15256e-05 -5.41316 -0.0858795 3.29725 0.0062 0.0497 0.0339 0 0 0 0 0.0215 0 0 0 0 0 0.022 0 0 0 0 0 0.017 0 0 0 0 -0.0068 0.0873 0.0207 0 0 0 0 0.0267 0 0 0 0 0 0.0213 0 0 0 0 0 0.018 0 0 0 0 -0.0067 0.0922 0.0055 0 0 0 0 0.0266 0 0 0 0 0 0.0228 0 0 0 0 0 0.015 0 0 0 0 -0.0067 0.0925 -0.0113 0 0 0 0 0.0247 0 0 0 0 0 0.0221 0 0 0 0 0 0.018 0 0 0 0 -0.0066 0.0935 -0.0272 0 0 0 0 0.0163 0 0 0 0 0 0.0171 0 0 0 0 0 0.018 0 0 0 0 5.96046e-06 35.6457 2.38419e-05 32.8256 -1.28066e-06 3.30348 -19.65 5.96046e-06 2.38419e-05 44.2413 31.4817 2.33144 -27.1316 -2.38419e-05 -9.53674e-05 2.96359e-06 1.19528e-05 29.9663 -22.7679 -4.76837e-05 2.38419e-05 1.93471 0.0133524 5.45076 -0.0062 0.0497 0.0339 0 0 0 0 0.0215 0 0 0 0 0 0.022 0 0 0 0 0 0.017 0 0 0 0 0.0068 0.0873 0.0207 0 0 0 0 0.0267 0 0 0 0 0 0.0213 0 0 0 0 0 0.018 0 0 0 0 0.0067 0.0922 0.0055 0 0 0 0 0.0266 0 0 0 0 0 0.0228 0 0 0 0 0 0.015 0 0 0 0 0.0067 0.0925 -0.0113 0 0 0 0 0.0247 0 0 0 0 0 0.0221 0 0 0 0 0 0.018 0 0 0 0 0.0066 0.0935 -0.0272 0 0 0 0 0.0163 0 0 0 0 0 0.0171 0 0 0 0 0 0.018 0 0 0 0 5.96046e-06 35.6457 2.38419e-05 -3.55819 8.72644 0.540514 -1.19209e-05 19.3268 2.38419e-05 9.49823e-06 -1.13125e-05 -1.70755e-06 
-9.01005 -11.1095 -305.323 0.0760117 -1.38996 13.3823 7.69115 -8.3566 1.95017 1.89331 -1.08878 -1.43074 -5.96046e-06 -51.1365 2.38419e-05 -5.37272 0.467167 0.0439375 5.96046e-06 -41.7186 -4.76837e-05 10.664 3.87859 5.5504 -7.92306 -7.16214 1.52881 -7.81647 -12.5006 -2.25254 1.78814e-05 -50.0503 0 3.48497 11.1775 -0.67636 -5.96046e-06 -39.7774 2.38419e-05 2.5034 -6.49429 1.76654 1.19209e-05 5.97841 -5.97839 -0.726736 -3.50512 0.000920383 5.96046e-06 35.6457 2.38419e-05 -28.0827 1.10991e-05 -3.00535 21.5973 -1.19209e-05 -2.38419e-05 -53.3397 -4.12611 -9.53862 26.7067 1.78814e-05 4.76837e-05 -13.2822 2.27628 -9.55071 26.9757 0 -7.15256e-05 -5.41316 -0.0858795 3.29725 0.0062 0.0497 0.0339 0 0 0 0 0.0215 0 0 0 0 0 0.022 0 0 0 0 0 0.017 0 0 0 0 -0.0068 0.0873 0.0207 0 0 0 0 0.0267 0 0 0 0 0 0.0213 0 0 0 0 0 0.018 0 0 0 0 -0.0067 0.0922 0.0055 0 0 0 0 0.0266 0 0 0 0 0 0.0228 0 0 0 0 0 0.015 0 0 0 0 -0.0067 0.0925 -0.0113 0 0 0 0 0.0247 0 0 0 0 0 0.0221 0 0 0 0 0 0.018 0 0 0 0 -0.0066 0.0935 -0.0272 0 0 0 0 0.0163 0 0 0 0 0 0.0171 0 0 0 0 0 0.018 0 0 0 0 5.96046e-06 35.6457 2.38419e-05 32.8256 -1.28066e-06 3.30348 -19.65 5.96046e-06 2.38419e-05 44.2413 31.4817 2.33144 -27.1316 -2.38419e-05 -9.53674e-05 2.96359e-06 1.19528e-05 29.9663 -22.7679 -4.76837e-05 2.38419e-05 1.93471 0.0133524 5.45076 -0.0062 0.0497 0.0339 0 0 0 0 0.0215 0 0 0 0 0 0.022 0 0 0 0 0 0.017 0 0 0 0 0.0068 0.0873 0.0207 0 0 0 0 0.0267 0 0 0 0 0 0.0213 0 0 0 0 0 0.018 0 0 0 0 0.0067 0.0922 0.0055 0 0 0 0 0.0266 0 0 0 0 0 0.0228 0 0 0 0 0 0.015 0 0 0 0 0.0067 0.0925 -0.0113 0 0 0 0 0.0247 0 0 0 0 0 0.0221 0 0 0 0 0 0.018 0 0 0 0 0.0066 0.0935 -0.0272 0 0 0 0 0.0163 0 0 0 0 0 0.0171 0 0 0 0 0 0.018 0 0 0 0 5.96046e-06 35.6457 2.38419e-05 -3.55819 8.72644 0.540514 -1.19209e-05 19.3268 2.38419e-05 9.49823e-06 -1.13125e-05 -1.70755e-06 
